<svg width="140" height="140" viewBox="0 0 140 140" xmlns="http://www.w3.org/2000/svg"><title>coin</title><desc>Created with Sketch.</desc><g fill-rule="nonzero" fill="none"><path d="M137.905 86.934c-9.35 37.5-47.336 60.322-84.845 50.97-37.493-9.349-60.318-47.333-50.963-84.83 9.346-37.504 47.332-60.328 84.829-50.979 37.506 9.349 60.329 47.337 50.979 84.839z" id="Shape" fill="#F7931A"/><path d="M99.606 58.781c1.393-9.171-5.698-14.101-15.396-17.39l3.146-12.423-7.68-1.885-3.063 12.096c-2.019-.495-4.093-.963-6.153-1.426l3.084-12.176-7.676-1.885-3.148 12.419c-1.671-.375-3.312-.745-4.904-1.135l.009-.039-10.592-2.604-2.043 8.077s5.698 1.286 5.578 1.366c3.111.765 3.673 2.791 3.579 4.398l-3.583 14.153c.214.054.492.131.798.252l-.812-.198-5.023 19.826c-.381.93-1.345 2.326-3.52 1.796.077.11-5.583-1.372-5.583-1.372l-3.813 8.656 9.995 2.453c1.859.459 3.682.939 5.475 1.391l-3.178 12.566 7.672 1.885 3.148-12.432c2.096.56 4.13 1.077 6.121 1.564l-3.137 12.374 7.68 1.885 3.178-12.542c13.097 2.44 22.945 1.456 27.09-10.207 3.34-9.391-.166-14.808-7.057-18.34 5.018-1.139 8.798-4.39 9.807-11.103zm-17.548 24.229c-2.373 9.391-18.432 4.314-23.638 3.041l4.218-16.647c5.206 1.279 21.901 3.812 19.421 13.606zm2.376-24.364c-2.166 8.542-15.531 4.202-19.867 3.138l3.824-15.098c4.336 1.064 18.298 3.05 16.043 11.96z" fill="#fff"/></g></svg>