<?xml version="1.0" encoding="UTF-8"?>
<svg width="28px" height="28px" viewBox="0 0 28 28" version="1.1" xmlns="http://www.w3.org/2000/svg" xmlns:xlink="http://www.w3.org/1999/xlink">
    <!-- Generator: Sketch 59.1 (86144) - https://sketch.com -->
    <title>icon-appstore</title>
    <desc>Created with Sketch.</desc>
    <defs>
        <linearGradient x1="49.9844444%" y1="0.0311111111%" x2="49.9844444%" y2="99.9977778%" id="linearGradient-1">
            <stop stop-color="#19E6FF" offset="0%"></stop>
            <stop stop-color="#1E51EE" offset="100%"></stop>
        </linearGradient>
    </defs>
    <g id="Page-1" stroke="none" stroke-width="1" fill="none" fill-rule="evenodd">
        <g id="get.cryptobrowser_site-download-btn-first-block" transform="translate(-1076.000000, -673.000000)" fill-rule="nonzero">
            <g id="first" transform="translate(30.000000, 150.000000)">
                <g id="btn-appstore" transform="translate(1030.000000, 507.000000)">
                    <g id="up">
                        <g id="icon-appstore" transform="translate(16.000000, 16.000000)">
                            <path d="M18.2311111,0 C21.0311111,0 22.4311111,0 23.9555556,0.466666667 C25.6044444,1.05777778 26.9111111,2.36444444 27.5022222,4.01333333 C28,5.53777778 28,6.96888889 28,9.76888889 L28,18.2311111 C28,21.0311111 28,22.4311111 27.5333333,23.9555556 C26.9422222,25.6044444 25.6355556,26.9111111 23.9866667,27.5022222 C22.4311111,28 21.0311111,28 18.2311111,28 L9.76888889,28 C6.96888889,28 5.56888889,28 4.04444444,27.5333333 C2.36444444,26.9111111 1.08888889,25.6355556 0.466666667,23.9555556 C0,22.4622222 0,21.0622222 0,18.2311111 L0,9.76888889 C0,6.96888889 0,5.56888889 0.466666667,4.04444444 C1.08888889,2.39555556 2.36444444,1.08888889 4.04444444,0.497777778 C5.53777778,0 6.93777778,0 9.76888889,0 L18.2311111,0 Z" id="path-2_1_" fill="url(#linearGradient-1)"></path>
                            <path d="M6.31555556,19.6933333 C6.34666667,19.6311111 6.40888889,19.6 6.47111111,19.5688889 C6.72,19.5066667 6.96888889,19.4444444 7.21777778,19.4444444 C7.90222222,19.4444444 8.52444444,19.6933333 9.02222222,20.1288889 C9.08444444,20.1911111 9.08444444,20.2844444 9.05333333,20.3466667 L7.77777778,22.5244444 C7.52888889,22.96 7.06222222,23.2088889 6.59555556,23.2088889 C6.31555556,23.2088889 6.03555556,23.1155556 5.78666667,22.9288889 C5.22666667,22.5244444 5.10222222,21.7155556 5.44444444,21.1244444 L6.31555556,19.6933333 Z M22.8977778,16.3644444 C23.6133333,16.3644444 24.2355556,16.8933333 24.2977778,17.5777778 C24.36,18.3866667 23.7377778,19.0711111 22.96,19.0711111 L21.3111111,19.0711111 L22.5244444,21.1555556 C22.8666667,21.7466667 22.7422222,22.5555556 22.1822222,22.96 C21.9333333,23.1466667 21.6533333,23.24 21.3733333,23.24 C20.9066667,23.24 20.44,22.9911111 20.1911111,22.5555556 L17.2666667,17.4844444 L14.9644444,13.5022222 C14.9333333,13.4711111 14.9333333,13.44 14.9333333,13.3777778 C14.9333333,13.2222222 14.9022222,13.0666667 14.9022222,12.9111111 C14.9022222,11.8222222 15.1511111,10.7333333 15.6488889,9.86222222 C15.7111111,9.76888889 15.8666667,9.76888889 15.9288889,9.86222222 L19.7244444,16.3333333 L22.8977778,16.3333333 L22.8977778,16.3644444 Z M15.7422222,16.4266667 C16.4266667,16.8311111 16.8622222,17.6088889 16.8622222,18.48 C16.8622222,18.6666667 16.8311111,18.8222222 16.8,19.0088889 C16.8,19.04 16.7377778,19.0711111 16.7066667,19.0711111 L12.3511111,19.0711111 L5.10222222,19.0711111 C4.32444444,19.0711111 3.67111111,18.3866667 3.76444444,17.5777778 C3.82666667,16.8622222 4.44888889,16.3644444 5.16444444,16.3644444 L8.24444444,16.3644444 L12.4444444,9.14666667 L11.2933333,7.18666667 C10.8888889,6.50222222 11.1688889,5.6 11.9155556,5.28888889 C12.5688889,5.00888889 13.3155556,5.28888889 13.6888889,5.88 L14.0311111,6.47111111 L14.4044444,5.84888889 C14.8088889,5.16444444 15.7111111,4.94666667 16.3644444,5.41333333 C16.9555556,5.81777778 17.08,6.62666667 16.7066667,7.24888889 L11.3555556,16.3644444 L13.5333333,16.3644444 L15.5244444,16.3644444 C15.6177778,16.3644444 15.68,16.3955556 15.7422222,16.4266667 Z" id="Icon" fill="#FFFFFF"></path>
                        </g>
                    </g>
                </g>
            </g>
        </g>
    </g>
</svg>